<?xml version="1.0" encoding="UTF-8" standalone="no"?>
<!-- Created with Inkscape (http://www.inkscape.org/) -->

<svg
   width="512"
   height="512"
   viewBox="0 0 135.46666 135.46667"
   version="1.1"
   id="svg5"
   inkscape:version="1.2.2 (b0a8486541, 2022-12-01)"
   sodipodi:docname="icon.svg"
   xml:space="preserve"
   xmlns:inkscape="http://www.inkscape.org/namespaces/inkscape"
   xmlns:sodipodi="http://sodipodi.sourceforge.net/DTD/sodipodi-0.dtd"
   xmlns:xlink="http://www.w3.org/1999/xlink"
   xmlns="http://www.w3.org/2000/svg"
   xmlns:svg="http://www.w3.org/2000/svg"
   xmlns:rdf="http://www.w3.org/1999/02/22-rdf-syntax-ns#"
   xmlns:cc="http://creativecommons.org/ns#"
   xmlns:dc="http://purl.org/dc/elements/1.1/"><sodipodi:namedview
     id="namedview7"
     pagecolor="#ffffff"
     bordercolor="#666666"
     borderopacity="1.0"
     inkscape:showpageshadow="2"
     inkscape:pageopacity="0.0"
     inkscape:pagecheckerboard="true"
     inkscape:deskcolor="#d1d1d1"
     inkscape:document-units="px"
     showgrid="false"
     inkscape:zoom="1.1012639"
     inkscape:cx="-47.672497"
     inkscape:cy="342.33393"
     inkscape:window-width="1920"
     inkscape:window-height="1011"
     inkscape:window-x="0"
     inkscape:window-y="0"
     inkscape:window-maximized="1"
     inkscape:current-layer="layer1" /><defs
     id="defs2"><inkscape:perspective
       sodipodi:type="inkscape:persp3d"
       inkscape:vp_x="0 : 67.733335 : 1"
       inkscape:vp_y="0 : 1000 : 0"
       inkscape:vp_z="135.46666 : 67.733335 : 1"
       inkscape:persp3d-origin="67.73333 : 45.155557 : 1"
       id="perspective1806" /></defs><g
     inkscape:label="Layer 1"
     inkscape:groupmode="layer"
     id="layer1"><g
       id="g6375"
       transform="matrix(1.1571185,0,0,1.1571185,-3.1354786,2.1711391)"><g
         id="g6264"><rect
           style="fill:#000000;stroke:#000000;stroke-width:4.96561;stroke-linecap:round;stroke-linejoin:round;stroke-dasharray:none;stroke-opacity:1;paint-order:markers stroke fill"
           id="rect70"
           width="95.57605"
           height="69.117722"
           x="7.7744727"
           y="7.7744727" /></g><rect
         style="fill:#ffffff;stroke:none;stroke-width:1.13777;stroke-linecap:square;stroke-linejoin:round;stroke-dasharray:none;stroke-dashoffset:7.50002;stroke-opacity:1;paint-order:markers stroke fill"
         id="rect4443"
         width="71.4375"
         height="68.791664"
         x="19.84375"
         y="7.9375" /><g
         id="g4306"
         style="fill:#ffffff"
         transform="translate(-0.54700861,-1.7337905)"><rect
           style="fill:#ffffff;stroke:none;stroke-width:1.30365;stroke-linecap:square;stroke-linejoin:round;stroke-dasharray:none;stroke-dashoffset:1.98438;stroke-opacity:1;paint-order:markers stroke fill"
           id="rect4220"
           width="9.260417"
           height="9.260417"
           x="8.4845085"
           y="9.6712904" /><rect
           style="fill:#ffffff;stroke:none;stroke-width:1.30365;stroke-linecap:square;stroke-linejoin:round;stroke-dasharray:none;stroke-dashoffset:1.98438;stroke-opacity:1;paint-order:markers stroke fill"
           id="rect4296"
           width="9.260417"
           height="9.260417"
           x="8.4845085"
           y="69.202538" /><rect
           style="fill:#ffffff;stroke:none;stroke-width:1.30365;stroke-linecap:square;stroke-linejoin:round;stroke-dasharray:none;stroke-dashoffset:1.98438;stroke-opacity:1;paint-order:markers stroke fill"
           id="rect4298"
           width="9.260417"
           height="9.260417"
           x="8.4845085"
           y="29.515039" /><rect
           style="fill:#ffffff;stroke:none;stroke-width:1.30365;stroke-linecap:square;stroke-linejoin:round;stroke-dasharray:none;stroke-dashoffset:1.98438;stroke-opacity:1;paint-order:markers stroke fill"
           id="rect4300"
           width="9.260417"
           height="9.260417"
           x="8.4845085"
           y="49.358788" /></g><use
         x="0"
         y="0"
         xlink:href="#g4306"
         id="use4361"
         transform="translate(86.254215)" /><path
         style="fill:#000000;stroke:#000000;stroke-width:2.64583;stroke-linecap:round;stroke-linejoin:round;stroke-dasharray:none;stroke-dashoffset:7.50002;stroke-opacity:1;paint-order:markers stroke fill"
         d="M 71.074849,41.929334 43.225152,58.008364 V 26.658299 Z"
         id="path4553" /></g><g
       id="g6326"
       transform="matrix(0.60879566,0.16728356,-0.16728356,0.60879566,112.84763,30.695294)"><path
         id="path6261"
         style="color:#000000;fill:#000000;stroke:#ffffff;stroke-width:6.28603;stroke-linecap:round;stroke-linejoin:round;stroke-dasharray:none;stroke-dashoffset:7.50002;paint-order:markers stroke fill"
         d="m -10.499263,47.747977 c -22.50409,0.112553 -42.860676,14.238837 -50.66065,35.678128 a 5.2916498,5.2916498 0 0 0 3.16184,6.781218 5.2916498,5.2916498 0 0 0 6.782855,-3.164296 C -44.504218,68.596928 -26.369231,56.92811 -6.8004916,58.464511 8.687934,59.680555 21.990469,68.932446 28.727033,82.289217 L 16.131238,76.212722 a 5.2916498,5.2916498 0 0 0 -7.0652349,2.466939 5.2916498,5.2916498 0 0 0 2.4669389,7.064417 l 23.281227,11.22973 a 5.2916498,5.2916498 0 0 0 3.999977,0.834863 5.2916498,5.2916498 0 0 0 4.269262,-4.864306 l 8.877379,-23.418734 a 5.2916498,5.2916498 0 0 0 -3.071806,-6.824598 5.2916498,5.2916498 0 0 0 -6.824598,3.072624 L 37.850779,76.891253 C 29.369911,60.651217 12.980038,49.402192 -5.9729948,47.914131 -7.489268,47.795084 -8.9989906,47.740474 -10.499263,47.747977 Z m -47.43333,57.433683 a 5.2916498,5.2916498 0 0 0 -1.37998,0.0606 5.2916498,5.2916498 0 0 0 -0.581949,0.18416 5.2916498,5.2916498 0 0 0 -0.0025,0 5.2916498,5.2916498 0 0 0 -0.0352,0.0106 5.2916498,5.2916498 0 0 0 -0.18989,0.0565 5.2916498,5.2916498 0 0 0 -0.438713,0.12932 5.2916498,5.2916498 0 0 0 -0.03438,0.0156 5.2916498,5.2916498 0 0 0 -0.01392,0.004 5.2916498,5.2916498 0 0 0 -0.182524,0.0835 5.2916498,5.2916498 0 0 0 -0.427253,0.1948 5.2916498,5.2916498 0 0 0 -0.234089,0.14324 5.2916498,5.2916498 0 0 0 -0.357682,0.22426 5.2916498,5.2916498 0 0 0 -0.193983,0.15715 5.2916498,5.2916498 0 0 0 -0.338038,0.27993 5.2916498,5.2916498 0 0 0 -0.186616,0.19644 5.2916498,5.2916498 0 0 0 -0.287291,0.30857 5.2916498,5.2916498 0 0 0 -0.197257,0.27092 5.2916498,5.2916498 0 0 0 -0.200531,0.28238 5.2916498,5.2916498 0 0 0 -0.183343,0.33558 5.2916498,5.2916498 0 0 0 -0.137507,0.25374 5.2916498,5.2916498 0 0 0 -0.0082,0.0229 5.2916498,5.2916498 0 0 0 -0.01309,0.0237 L -73.5798,130.72268 a 5.2916498,5.2916498 0 0 0 2.657648,6.99566 5.2916498,5.2916498 0 0 0 6.996482,-2.65765 l 4.584382,-10.20088 c 7.889763,16.90661 24.170951,28.9558 43.370328,31.00535 23.9928117,2.56125 46.841614,-11.0911 55.953028,-33.43382 a 5.2916498,5.2916498 0 0 0 -2.902378,-6.89826 5.2916498,5.2916498 0 0 0 -6.898262,2.90074 c -7.348883,18.0207 -25.6778248,28.97376 -45.029415,26.90797 -15.412679,-1.64533 -28.439558,-11.23053 -34.814617,-24.74551 l 10.500452,4.84138 a 5.2916498,5.2916498 0 0 0 7.021855,-2.58971 5.2916498,5.2916498 0 0 0 -2.590532,-7.02022 l -20.19305,-9.312 a 5.2916498,5.2916498 0 0 0 -3.008782,-1.33414 z" /></g></g><metadata
     id="metadata16"><rdf:RDF><cc:Work
         rdf:about=""><cc:license
           rdf:resource="http://creativecommons.org/licenses/by/4.0/" /><dc:creator><cc:Agent><dc:title>Marek ‘saji’ Augustynowicz
</dc:title></cc:Agent></dc:creator></cc:Work><cc:License
         rdf:about="http://creativecommons.org/licenses/by/4.0/"><cc:permits
           rdf:resource="http://creativecommons.org/ns#Reproduction" /><cc:permits
           rdf:resource="http://creativecommons.org/ns#Distribution" /><cc:requires
           rdf:resource="http://creativecommons.org/ns#Notice" /><cc:requires
           rdf:resource="http://creativecommons.org/ns#Attribution" /><cc:permits
           rdf:resource="http://creativecommons.org/ns#DerivativeWorks" /></cc:License></rdf:RDF></metadata></svg>
